<?xml version="1.0" encoding="UTF-8" standalone="no"?>
<!DOCTYPE svg PUBLIC "-//W3C//DTD SVG 1.1//EN"
 "http://www.w3.org/Graphics/SVG/1.1/DTD/svg11.dtd">
<!-- Generated by graphviz version 2.38.0 (20140413.2041)
 -->
<!-- Title: Perl Pages: 1 -->
<svg width="734pt" height="476pt"
 viewBox="0.00 0.00 734.09 476.00" xmlns="http://www.w3.org/2000/svg" xmlns:xlink="http://www.w3.org/1999/xlink">
<g id="graph0" class="graph" transform="scale(1 1) rotate(0) translate(4 472)">
<title>Perl</title>
<polygon fill="white" stroke="none" points="-4,4 -4,-472 730.094,-472 730.094,4 -4,4"/>
<!-- stage_0 -->
<g id="node1" class="node"><title>stage_0</title>
<path fill="none" stroke="black" d="M165.094,-468C165.094,-468 118.094,-468 118.094,-468 112.094,-468 106.094,-462 106.094,-456 106.094,-456 106.094,-444 106.094,-444 106.094,-438 112.094,-432 118.094,-432 118.094,-432 165.094,-432 165.094,-432 171.094,-432 177.094,-438 177.094,-444 177.094,-444 177.094,-456 177.094,-456 177.094,-462 171.094,-468 165.094,-468"/>
<text text-anchor="middle" x="141.594" y="-446.3" font-family="Times,serif" font-size="14.00">Stage 0</text>
</g>
<!-- download -->
<g id="node2" class="node"><title>download</title>
<ellipse fill="none" stroke="black" cx="87.594" cy="-378" rx="55.4913" ry="18"/>
<text text-anchor="middle" x="87.594" y="-374.3" font-family="Times,serif" font-size="14.00">download</text>
</g>
<!-- stage_0&#45;&gt;download -->
<g id="edge1" class="edge"><title>stage_0&#45;&gt;download</title>
<path fill="none" stroke="black" d="M128.246,-431.697C121.343,-422.749 112.826,-411.708 105.373,-402.047"/>
<ellipse fill="none" stroke="black" cx="102.86" cy="-398.789" rx="4.00002" ry="4.00002"/>
</g>
<!-- stage_1 -->
<g id="node3" class="node"><title>stage_1</title>
<path fill="none" stroke="black" d="M220.094,-396C220.094,-396 173.094,-396 173.094,-396 167.094,-396 161.094,-390 161.094,-384 161.094,-384 161.094,-372 161.094,-372 161.094,-366 167.094,-360 173.094,-360 173.094,-360 220.094,-360 220.094,-360 226.094,-360 232.094,-366 232.094,-372 232.094,-372 232.094,-384 232.094,-384 232.094,-390 226.094,-396 220.094,-396"/>
<text text-anchor="middle" x="196.594" y="-374.3" font-family="Times,serif" font-size="14.00">Stage 1</text>
</g>
<!-- stage_0&#45;&gt;stage_1 -->
<g id="edge2" class="edge"><title>stage_0&#45;&gt;stage_1</title>
<path fill="none" stroke="black" d="M155.19,-431.697C161.717,-423.389 169.662,-413.277 176.841,-404.141"/>
<polygon fill="black" stroke="black" points="179.729,-406.13 183.155,-396.104 174.225,-401.805 179.729,-406.13"/>
</g>
<!-- extractor -->
<g id="node4" class="node"><title>extractor</title>
<ellipse fill="none" stroke="black" cx="142.594" cy="-306" rx="53.8905" ry="18"/>
<text text-anchor="middle" x="142.594" y="-302.3" font-family="Times,serif" font-size="14.00">extractor</text>
</g>
<!-- stage_1&#45;&gt;extractor -->
<g id="edge3" class="edge"><title>stage_1&#45;&gt;extractor</title>
<path fill="none" stroke="black" d="M183.246,-359.697C176.343,-350.749 167.826,-339.708 160.373,-330.047"/>
<ellipse fill="none" stroke="black" cx="157.86" cy="-326.789" rx="4.00002" ry="4.00002"/>
</g>
<!-- stage_2 -->
<g id="node5" class="node"><title>stage_2</title>
<path fill="none" stroke="black" d="M273.094,-324C273.094,-324 226.094,-324 226.094,-324 220.094,-324 214.094,-318 214.094,-312 214.094,-312 214.094,-300 214.094,-300 214.094,-294 220.094,-288 226.094,-288 226.094,-288 273.094,-288 273.094,-288 279.094,-288 285.094,-294 285.094,-300 285.094,-300 285.094,-312 285.094,-312 285.094,-318 279.094,-324 273.094,-324"/>
<text text-anchor="middle" x="249.594" y="-302.3" font-family="Times,serif" font-size="14.00">Stage 2</text>
</g>
<!-- stage_1&#45;&gt;stage_2 -->
<g id="edge4" class="edge"><title>stage_1&#45;&gt;stage_2</title>
<path fill="none" stroke="black" d="M209.695,-359.697C215.985,-351.389 223.641,-341.277 230.559,-332.141"/>
<polygon fill="black" stroke="black" points="233.398,-334.19 236.644,-324.104 227.817,-329.964 233.398,-334.19"/>
</g>
<!-- tokenizer -->
<g id="node6" class="node"><title>tokenizer</title>
<ellipse fill="none" stroke="black" cx="195.594" cy="-234" rx="54.6905" ry="18"/>
<text text-anchor="middle" x="195.594" y="-230.3" font-family="Times,serif" font-size="14.00">tokenizer</text>
</g>
<!-- stage_2&#45;&gt;tokenizer -->
<g id="edge5" class="edge"><title>stage_2&#45;&gt;tokenizer</title>
<path fill="none" stroke="black" d="M236.246,-287.697C229.343,-278.749 220.826,-267.708 213.373,-258.047"/>
<ellipse fill="none" stroke="black" cx="210.86" cy="-254.789" rx="4.00002" ry="4.00002"/>
</g>
<!-- stage_3 -->
<g id="node7" class="node"><title>stage_3</title>
<path fill="none" stroke="black" d="M327.094,-252C327.094,-252 280.094,-252 280.094,-252 274.094,-252 268.094,-246 268.094,-240 268.094,-240 268.094,-228 268.094,-228 268.094,-222 274.094,-216 280.094,-216 280.094,-216 327.094,-216 327.094,-216 333.094,-216 339.094,-222 339.094,-228 339.094,-228 339.094,-240 339.094,-240 339.094,-246 333.094,-252 327.094,-252"/>
<text text-anchor="middle" x="303.594" y="-230.3" font-family="Times,serif" font-size="14.00">Stage 3</text>
</g>
<!-- stage_2&#45;&gt;stage_3 -->
<g id="edge6" class="edge"><title>stage_2&#45;&gt;stage_3</title>
<path fill="none" stroke="black" d="M262.942,-287.697C269.351,-279.389 277.152,-269.277 284.2,-260.141"/>
<polygon fill="black" stroke="black" points="287.062,-262.16 290.399,-252.104 281.52,-257.884 287.062,-262.16"/>
</g>
<!-- ner_address -->
<g id="node8" class="node"><title>ner_address</title>
<ellipse fill="none" stroke="black" cx="67.594" cy="-162" rx="67.6881" ry="18"/>
<text text-anchor="middle" x="67.594" y="-158.3" font-family="Times,serif" font-size="14.00">ner_address</text>
</g>
<!-- stage_3&#45;&gt;ner_address -->
<g id="edge7" class="edge"><title>stage_3&#45;&gt;ner_address</title>
<path fill="none" stroke="black" d="M267.681,-218.79C264.956,-217.814 262.238,-216.873 259.594,-216 214.225,-201.015 161.898,-186.766 123.341,-176.824"/>
<ellipse fill="none" stroke="black" cx="119.204" cy="-175.763" rx="4.00001" ry="4.00001"/>
</g>
<!-- ner_company -->
<g id="node9" class="node"><title>ner_company</title>
<ellipse fill="none" stroke="black" cx="226.594" cy="-162" rx="73.387" ry="18"/>
<text text-anchor="middle" x="226.594" y="-158.3" font-family="Times,serif" font-size="14.00">ner_company</text>
</g>
<!-- stage_3&#45;&gt;ner_company -->
<g id="edge8" class="edge"><title>stage_3&#45;&gt;ner_company</title>
<path fill="none" stroke="black" d="M284.56,-215.697C274.434,-206.491 261.87,-195.069 251.03,-185.215"/>
<ellipse fill="none" stroke="black" cx="247.838" cy="-182.313" rx="4.00002" ry="4.00002"/>
</g>
<!-- ner_person -->
<g id="node10" class="node"><title>ner_person</title>
<ellipse fill="none" stroke="black" cx="380.594" cy="-162" rx="63.0888" ry="18"/>
<text text-anchor="middle" x="380.594" y="-158.3" font-family="Times,serif" font-size="14.00">ner_person</text>
</g>
<!-- stage_3&#45;&gt;ner_person -->
<g id="edge9" class="edge"><title>stage_3&#45;&gt;ner_person</title>
<path fill="none" stroke="black" d="M322.628,-215.697C332.828,-206.423 345.503,-194.901 356.397,-184.998"/>
<ellipse fill="none" stroke="black" cx="359.613" cy="-182.074" rx="4.00002" ry="4.00002"/>
</g>
<!-- stage_4 -->
<g id="node11" class="node"><title>stage_4</title>
<path fill="none" stroke="black" d="M521.094,-180C521.094,-180 474.094,-180 474.094,-180 468.094,-180 462.094,-174 462.094,-168 462.094,-168 462.094,-156 462.094,-156 462.094,-150 468.094,-144 474.094,-144 474.094,-144 521.094,-144 521.094,-144 527.094,-144 533.094,-150 533.094,-156 533.094,-156 533.094,-168 533.094,-168 533.094,-174 527.094,-180 521.094,-180"/>
<text text-anchor="middle" x="497.594" y="-158.3" font-family="Times,serif" font-size="14.00">Stage 4</text>
</g>
<!-- stage_3&#45;&gt;stage_4 -->
<g id="edge10" class="edge"><title>stage_3&#45;&gt;stage_4</title>
<path fill="none" stroke="black" d="M339.189,-220.558C367.411,-210.643 408.08,-196.249 452.275,-180.086"/>
<polygon fill="black" stroke="black" points="453.571,-183.338 461.756,-176.611 451.162,-176.766 453.571,-183.338"/>
</g>
<!-- aggregator_companies_address -->
<g id="node12" class="node"><title>aggregator_companies_address</title>
<ellipse fill="none" stroke="black" cx="181.594" cy="-90" rx="158.672" ry="18"/>
<text text-anchor="middle" x="181.594" y="-86.3" font-family="Times,serif" font-size="14.00">aggregator_companies_address</text>
</g>
<!-- stage_4&#45;&gt;aggregator_companies_address -->
<g id="edge11" class="edge"><title>stage_4&#45;&gt;aggregator_companies_address</title>
<path fill="none" stroke="black" d="M461.915,-146.902C458.784,-145.854 455.646,-144.868 452.594,-144 396.351,-127.999 332.182,-115.214 280.408,-106.213"/>
<ellipse fill="none" stroke="black" cx="276.15" cy="-105.48" rx="4.00001" ry="4.00001"/>
</g>
<!-- aggregator_people_address -->
<g id="node13" class="node"><title>aggregator_people_address</title>
<ellipse fill="none" stroke="black" cx="497.594" cy="-90" rx="139.976" ry="18"/>
<text text-anchor="middle" x="497.594" y="-86.3" font-family="Times,serif" font-size="14.00">aggregator_people_address</text>
</g>
<!-- stage_4&#45;&gt;aggregator_people_address -->
<g id="edge12" class="edge"><title>stage_4&#45;&gt;aggregator_people_address</title>
<path fill="none" stroke="black" d="M497.594,-143.697C497.594,-135.389 497.594,-125.277 497.594,-116.141"/>
<ellipse fill="none" stroke="black" cx="497.594" cy="-112.104" rx="4" ry="4"/>
</g>
<!-- stage_5 -->
<g id="node14" class="node"><title>stage_5</title>
<path fill="none" stroke="black" d="M714.094,-108C714.094,-108 667.094,-108 667.094,-108 661.094,-108 655.094,-102 655.094,-96 655.094,-96 655.094,-84 655.094,-84 655.094,-78 661.094,-72 667.094,-72 667.094,-72 714.094,-72 714.094,-72 720.094,-72 726.094,-78 726.094,-84 726.094,-84 726.094,-96 726.094,-96 726.094,-102 720.094,-108 714.094,-108"/>
<text text-anchor="middle" x="690.594" y="-86.3" font-family="Times,serif" font-size="14.00">Stage 5</text>
</g>
<!-- stage_4&#45;&gt;stage_5 -->
<g id="edge13" class="edge"><title>stage_4&#45;&gt;stage_5</title>
<path fill="none" stroke="black" d="M533.216,-148.632C561.395,-138.781 601.962,-124.451 645.464,-108.379"/>
<polygon fill="black" stroke="black" points="646.923,-111.571 655.084,-104.814 644.491,-105.007 646.923,-111.571"/>
</g>
<!-- save -->
<g id="node15" class="node"><title>save</title>
<ellipse fill="none" stroke="black" cx="690.594" cy="-18" rx="31.6951" ry="18"/>
<text text-anchor="middle" x="690.594" y="-14.3" font-family="Times,serif" font-size="14.00">save</text>
</g>
<!-- stage_5&#45;&gt;save -->
<g id="edge14" class="edge"><title>stage_5&#45;&gt;save</title>
<path fill="none" stroke="black" d="M690.594,-71.6966C690.594,-63.3893 690.594,-53.2771 690.594,-44.1407"/>
<ellipse fill="none" stroke="black" cx="690.594" cy="-40.1043" rx="4" ry="4"/>
</g>
</g>
</svg>
